# xmcd
#
# Track frame offsets:
# 150
# 9057
# 24497
# 36886
# 50328
# 60909
# 73433
# 80694
# 91653
# 104339
# 117781
# 131412
# 141750
# 155192
# 166043
# 175841
# 186881
# 200350
# 213198
# 224940
# 240434
# 249665
#
# Disc length: 3480 seconds
#
#
# Revision: 0
# Processed by: cddbd v1.5.2PL0 Copyright (c) Steve Scherf et al.
# Submitted via: FreeRIP 2.95 
#
DISCID=2e0d9616
DTITLE=José Roberto - Os Grandes Sucessos
DYEAR=2007
DGENRE=Popular
TTITLE0=Brigas De Amor
TTITLE1=Tenho Um Amor Melhor Que O Seu
TTITLE2=Lagrimas Nos Olhos
TTITLE3=Benzinho
TTITLE4=Resolvi Não Te Deixar
TTITLE5=Pra Nunca Mais Chorar
TTITLE6=Cintura Fina
TTITLE7=O Xote De Das Meninas
TTITLE8=Festa De Santo Reis
TTITLE9=Uma Lágrima
TTITLE10=Preciso De Você
TTITLE11=Silvia Leticia
TTITLE12=Coração De Papel
TTITLE13=Deus Queira
TTITLE14=Sou Eu Chamando Por Você
TTITLE15=Meu Bem Ao Menos Telefone
TTITLE16=Sim Ou Não
TTITLE17=Mais Um Bobo
TTITLE18=Não Vá Embora
TTITLE19=Na Praia No Tempo
TTITLE20=Preciso Esquecer Que Te Amo
TTITLE21=O Último Trem
EXTD=
EXTT0=
EXTT1=
EXTT2=
EXTT3=
EXTT4=
EXTT5=
EXTT6=
EXTT7=
EXTT8=
EXTT9=
EXTT10=
EXTT11=
EXTT12=
EXTT13=
EXTT14=
EXTT15=
EXTT16=
EXTT17=
EXTT18=
EXTT19=
EXTT20=
EXTT21=
PLAYORDER=
